<?xml version="1.0" encoding="utf-8"?>
<!-- Generator: Adobe Illustrator 23.0.0, SVG Export Plug-In . SVG Version: 6.00 Build 0)  -->
<svg version="1.1" id="Capa_1" xmlns="http://www.w3.org/2000/svg" xmlns:xlink="http://www.w3.org/1999/xlink" x="0px" y="0px"
	 viewBox="0 0 50 50" style="enable-background:new 0 0 50 50;" xml:space="preserve">
<style type="text/css">
	.st0{fill:#1D1D1B;}
</style>
<g>
	<rect x="16.81" y="42.96" class="st0" width="16.62" height="0.54"/>
	<g>
		<polygon class="st0" points="19.74,42.12 20.86,42.12 20.86,39.32 19.74,40.85 		"/>
		<polygon class="st0" points="30.51,42.12 29.39,42.12 29.39,39.32 30.51,40.85 		"/>
		<polygon class="st0" points="22.16,42.17 23.13,42.17 23.13,36.72 22.16,37.69 		"/>
		<polygon class="st0" points="28.08,42.17 27.11,42.17 27.11,36.72 28.08,37.69 		"/>
		<rect x="24.44" y="35.95" class="st0" width="1.38" height="6.22"/>
	</g>
	<polygon class="st0" points="25.12,48 28.25,46.05 31.38,44.1 25.12,44.1 18.87,44.1 21.99,46.05 	"/>
</g>
<path d="M48.96,32.54c-3.45-7.62-7.51-13.19-7.51-13.19S41.8,1.11,25.16,1.11l-0.01,5.45l-0.01-5.45c-16.64,0-16.3,18.24-16.3,18.24
	s-4.06,5.57-7.51,13.19s5.45,11,5.45,11c-3.01-9.02,6.67-5.32,6.67-5.32l3,5.11v-1.22l-3.41-6.27v-1.63l4.14,7.39l6.66-6.91
	c0,0,0.28-1.18,1.31-1.22c1.02,0.05,1.3,1.22,1.3,1.22l6.66,6.91l4.14-7.39v1.63l-3.41,6.27v1.22l3.01-5.11c0,0,9.68-3.7,6.67,5.32
	C43.51,43.54,52.41,40.17,48.96,32.54z M29.94,20.77c0,0,2.38-2.04,5.43-2.04c3.06,0,7.4,5.03,7.4,5.03s0.68,1.19,0.24,1.56
	c-0.54-0.2-4.55-5.54-7.71-5.54c-3.16,0-4.48,1.7-4.99,1.53S29.94,20.77,29.94,20.77z M7.69,23.76c0,0,4.35-5.03,7.4-5.03
	s5.43,2.04,5.43,2.04s0.14,0.37-0.37,0.54s-1.83-1.53-4.99-1.53c-3.16,0-7.17,5.33-7.71,5.54C7.01,24.95,7.69,23.76,7.69,23.76z
	 M13.13,28.38l1.09,0.07c2.95,2.21,8.59,0.71,8.59,0.71l-0.03,1.15C14.59,31.23,13.13,28.38,13.13,28.38z M22.87,33.27
	c0,0-5.16,1.49-5.16,6.52L17,37.99c0,0,0.25-2.28,3.44-4.72c0,0-0.79-1.97-5.58-0.37l-1.09-1.56c0,0,0.58,0.71,2.07,0.34
	c1.49-0.37,3.4-0.92,7.03,0.54V33.27z M22.81,28.31c-6.79,1.43-9.03-1.22-9.03-2.65c0-1.63,1.02-1.9,1.02-1.9
	c-4.28-1.02-7.68,8.58-8.29,10.39c-0.86,2.56,0.39,3.85,0.39,3.85c-1.1,0.66-1,2.05-1,2.05c-2.9-2.9,3.14-17.59,8.63-16.91
	c4.21,0,6.01,2.62,8.42,3.87L22.81,28.31z M27.05,30.96c0,0-2.24-0.84-3.67,0v-0.9c0,0,1.63-0.75,3.67,0.03V30.96z M27.05,29.54
	c0,0-2.24-1.22-3.67,0v-1.3c0,0,1.63-1.09,3.67,0.04V29.54z M35.44,32.9c-4.79-1.6-5.58,0.37-5.58,0.37
	c3.19,2.45,3.44,4.72,3.44,4.72l-0.71,1.8c0-5.03-5.16-6.52-5.16-6.52v-1.05c3.63-1.46,5.54-0.92,7.03-0.54
	c1.49,0.37,2.07-0.34,2.07-0.34L35.44,32.9z M27.53,30.32l-0.03-1.15c0,0,5.64,1.49,8.59-0.71l1.09-0.07
	C37.17,28.38,35.71,31.23,27.53,30.32z M44.46,40.06c0,0,0.1-1.39-1-2.05c0,0,1.25-1.29,0.39-3.85c-0.61-1.81-4.01-11.41-8.29-10.39
	c0,0,1.02,0.27,1.02,1.9c0,1.43-2.24,4.08-9.03,2.65l-0.14-1.29c2.41-1.26,4.21-3.87,8.42-3.87C41.33,22.47,47.37,37.16,44.46,40.06
	z"/>
</svg>
