<?xml version="1.0" encoding="utf-8"?>
<!-- Generator: Adobe Illustrator 23.0.0, SVG Export Plug-In . SVG Version: 6.00 Build 0)  -->
<svg version="1.1" id="Capa_1" xmlns="http://www.w3.org/2000/svg" xmlns:xlink="http://www.w3.org/1999/xlink" x="0px" y="0px"
	 viewBox="0 0 150 81" style="enable-background:new 0 0 150 81;" xml:space="preserve">
<style type="text/css">
	.st0{fill-rule:evenodd;clip-rule:evenodd;fill:#1D1D1B;}
</style>
<g>
	<path class="st0" d="M0.38,28.84V39.3c0,0,27.04,0,30.6,0c3.56,0,8.1-3.29,8.1-8.73c0-2.19,0.84-3.61-1.73-6.51l-3.91-4.64
		c-2.24-2.09,0.27-2.09,2.15-2.09c1.05,0,12.92,0,12.92,0V39.3h10.24V17.33h13.81V7.93H27.83c-5.44,0-8.1,5.22-7.95,7.94
		c0.15,2.72,0.65,6.14,5.17,10.25c4.12,3.75-2.04,2.72-2.66,2.72C19.26,28.84,0.38,28.84,0.38,28.84L0.38,28.84z"/>
	<path class="st0" d="M95.2,7.93H78.67L69.41,39.3h10.31l1.67-4.39h10.88l1.61,4.39h10.1L95.2,7.93L95.2,7.93z M83.69,27.38
		l3.56-11.51l3.35,11.51H83.69L83.69,27.38z"/>
	<path class="st0" d="M136.62,28.84c-3.97,0-3.97-1.46-3.97-1.46c3.41,0,6.43-4.96,6.43-10.04c0-5.08-4.96-9.41-8.94-9.41
		c-3.97,0-22.23,0-22.23,0V39.3h11.3V28.84c0,0,4.81,5.65,7.32,7.95c2.51,2.3,2.72,2.51,6.13,2.51c3.41,0,17.74,0,17.74,0V28.84
		C150.38,28.84,140.59,28.84,136.62,28.84L136.62,28.84z M126.37,21.52c-2.87,0-7.17,0-7.17,0v-5.65c0,0,4.87,0,7.17,0
		C129.65,15.87,130.22,21.52,126.37,21.52L126.37,21.52z"/>
	<polygon class="st0" points="0.38,43.28 11.94,43.28 14.86,53.74 17.58,43.28 29.72,43.28 32.86,53.74 35.99,43.28 46.03,43.28 
		36.83,74.65 27.63,74.65 23.59,59.8 19.05,74.65 9.63,74.65 0.38,43.28 	"/>
	<path class="st0" d="M69.76,43.45H53.23l-9.26,31.37h10.31l1.67-4.39h10.88l1.61,4.39h10.1L69.76,43.45L69.76,43.45z M58.25,62.9
		l3.56-11.51l3.35,11.51H58.25L58.25,62.9z"/>
	<path class="st0" d="M136.83,52.69c-1.88,0-3.93,0.22-1.69,2.31l3.91,4.64c2.57,2.89,2.53,4.1,2.53,6.29
		c0,5.44-5.38,8.73-8.94,8.73l-24.72,0.17c-3.41,0-3.62-0.21-6.13-2.51c-2.51-2.3-7.32-7.95-7.32-7.95v10.46h-11.3V43.45
		c0,0,18.26,0,22.23,0c3.97,0,8.94,4.33,8.94,9.41s-3.02,10.04-6.43,10.04c0,0,1.5,1.51,4.01,1.51c2.51,0,12.18,0.01,12.18,0.01
		c0.62,0,6.78,1.03,2.66-2.72c-4.52-4.11-5.02-7.53-5.17-10.25c-0.15-2.72,2.2-8.17,7.64-8.17h21.14v9.41H136.83L136.83,52.69z
		 M101.65,57.04c-2.87,0-7.17,0-7.17,0v-5.65c0,0,4.87,0,7.17,0C104.94,51.39,105.5,57.04,101.65,57.04L101.65,57.04z"/>
</g>
</svg>
